<?xml version="1.0" encoding="utf-8"?>
<svg version="1.1" id="layer" xmlns="http://www.w3.org/2000/svg" x="0px" y="0px" viewBox="0 0 652 652" style="enable-background:new 0 0 652 652;">
  <style type="text/css">
	.st0{fill:#038654;}
</style>
  <g transform="matrix(1, 0, 0, 1, 0, 96)">
    <g transform="matrix(1, 0, 0, 1, -3.229004, 2)">
      <path class="st0" d="M 189.988 475.329 C 195.796 475.329 201.107 475.756 205.919 476.567 C 210.677 477.378 214.826 478.743 218.256 480.664 C 221.742 482.585 224.397 485.188 226.278 488.474 C 228.159 491.76 229.099 495.858 229.099 500.809 C 229.099 505.162 228.159 509.089 226.333 512.588 C 224.452 516.088 221.907 519.075 218.699 521.551 C 215.49 524.027 211.728 525.947 207.524 527.227 C 203.264 528.55 198.783 529.19 193.97 529.19 C 188.881 529.19 184.566 529.148 180.97 529.105 C 177.375 529.062 174.277 529.02 171.621 529.02 L 167.029 529.02 C 165.646 529.02 164.429 529.062 163.268 529.19 C 163.545 525.947 163.765 522.661 163.877 519.289 C 163.987 515.917 164.097 512.076 164.097 507.723 L 164.097 497.053 C 164.097 492.699 164.042 488.858 163.877 485.487 C 163.765 482.116 163.545 478.743 163.268 475.329 L 189.988 475.329 Z M 179.145 513.442 L 179.145 518.136 C 179.145 519.673 179.145 521.038 179.2 522.276 C 179.256 523.514 179.256 524.325 179.256 524.709 C 180.251 524.752 181.468 524.794 182.907 524.88 C 184.345 524.922 186.115 524.965 188.217 524.965 C 195.851 524.965 201.937 522.959 206.418 518.905 C 210.899 514.893 213.112 508.79 213.112 500.638 C 213.112 497.394 212.558 494.492 211.452 491.932 C 210.345 489.371 208.741 487.194 206.75 485.402 C 204.703 483.609 202.269 482.201 199.447 481.262 C 196.626 480.28 193.418 479.811 189.877 479.811 C 187.443 479.811 185.451 479.853 183.958 479.938 C 182.408 480.024 180.915 480.109 179.311 480.237 C 179.311 480.621 179.311 481.432 179.256 482.67 C 179.2 483.908 179.2 485.316 179.2 486.895 L 179.2 491.59 L 179.2 495.516 L 179.2 509.472 L 179.2 513.442 L 179.145 513.442 Z" style=""/>
      <path class="st0" d="M 363.748 475.329 C 364.412 479.811 365.132 484.676 365.961 489.84 C 366.736 495.004 367.51 500.083 368.229 505.034 C 368.948 509.984 369.723 514.594 370.442 518.862 C 371.161 523.13 371.881 526.587 372.489 529.233 L 355.838 529.233 C 355.506 523.855 354.953 518.008 354.178 511.735 C 353.404 505.46 352.63 499.23 351.799 493.083 L 351.578 493.083 C 347.706 499.272 343.944 505.333 340.182 511.265 C 336.475 517.24 332.769 523.215 329.118 529.233 L 325.246 529.233 C 321.594 523.386 317.944 517.539 314.292 511.649 C 310.641 505.802 306.935 499.869 303.063 493.852 L 302.841 493.852 C 301.734 499.869 300.96 505.802 300.407 511.649 C 299.854 517.496 299.301 523.343 298.802 529.233 L 289.233 529.233 C 291.39 520.228 293.326 511.307 295.041 502.43 C 296.756 493.553 298.305 484.505 299.743 475.372 L 307.986 475.372 C 309.812 478.487 311.748 481.688 313.739 484.932 C 315.731 488.176 317.722 491.419 319.713 494.62 C 321.706 497.821 323.697 500.979 325.688 504.052 C 327.68 507.125 329.616 510.07 331.442 512.845 C 335.536 506.997 339.574 500.851 343.612 494.449 C 347.65 488.048 351.468 481.688 355.174 475.372 L 363.748 475.372 L 363.748 475.329 Z" style=""/>
      <path class="st0" d="M 379.902 495.985 C 382.723 494.193 385.822 492.827 389.085 491.889 C 392.349 490.95 395.669 490.481 398.877 490.481 C 401.588 490.481 404.077 490.737 406.346 491.206 C 408.614 491.675 410.605 492.444 412.264 493.425 C 413.924 494.449 415.196 495.772 416.137 497.394 C 417.077 499.016 417.52 500.979 417.52 503.284 C 417.52 506.613 417.464 509.728 417.354 512.588 C 417.244 515.447 417.188 518.264 417.188 521.081 C 417.188 522.319 417.299 523.301 417.52 524.027 C 417.741 524.752 418.128 525.264 418.571 525.648 C 419.069 526.032 419.677 526.245 420.452 526.373 C 420.895 526.416 421.393 526.459 421.89 526.501 C 422.609 526.544 423.163 526.971 423.163 527.526 C 423.163 528.08 422.72 528.55 422.057 528.764 C 420.563 529.233 419.29 529.574 418.184 529.831 C 416.801 530.129 415.363 530.3 413.814 530.3 C 411.324 530.3 409.277 529.831 407.728 528.892 C 406.179 527.952 404.962 526.587 404.188 524.794 C 402.639 526.459 400.814 527.782 398.766 528.806 C 396.72 529.788 394.12 530.3 390.966 530.3 C 388.366 530.3 386.209 530.044 384.383 529.531 C 382.558 529.02 381.064 528.252 379.847 527.313 C 378.685 526.331 377.8 525.264 377.247 524.027 C 376.694 522.789 376.417 521.551 376.417 520.313 C 376.417 518.606 376.749 517.112 377.468 515.832 C 378.187 514.594 379.183 513.527 380.51 512.63 C 381.839 511.735 383.387 511.009 385.213 510.412 C 387.039 509.814 389.085 509.302 391.409 508.875 C 394.23 508.363 396.498 507.893 398.158 507.51 C 399.817 507.125 401.034 506.741 401.865 506.314 C 402.694 505.931 403.192 505.503 403.414 505.034 C 403.634 504.565 403.746 503.967 403.746 503.284 C 403.746 502.089 403.303 500.851 402.528 499.827 C 400.814 497.608 397.937 496.456 394.009 496.456 C 392.847 496.456 391.685 496.583 390.468 496.797 C 389.252 497.053 388.09 497.351 386.984 497.779 C 385.877 498.205 384.826 498.632 383.941 499.144 C 383 499.656 382.336 500.168 381.839 500.766 L 381.119 500.766 L 379.902 495.985 Z M 403.966 517.283 C 403.966 515.021 403.966 513.314 404.022 512.161 C 404.077 510.966 404.077 509.942 404.077 509.046 C 402.639 509.686 401.146 510.198 399.541 510.582 C 397.937 510.966 396.498 511.479 395.171 512.076 C 393.843 512.673 392.736 513.484 391.907 514.552 C 391.077 515.618 390.634 517.112 390.634 519.118 C 390.634 521.038 391.132 522.532 392.184 523.557 C 393.234 524.581 394.617 525.093 396.388 525.093 C 398.601 525.093 400.426 524.453 401.809 523.13 C 403.303 521.807 403.966 519.844 403.966 517.283" style=""/>
      <path class="st0" d="M 459.398 502.26 C 458.734 501.961 457.959 501.705 457.13 501.491 C 456.3 501.278 455.304 501.193 454.253 501.193 C 451.21 501.193 448.776 501.961 447.006 503.498 C 445.236 505.034 444.35 506.869 444.35 508.961 L 444.35 512.119 C 444.35 515.319 444.406 518.307 444.516 521.124 C 444.627 523.94 444.848 526.672 445.18 529.275 C 444.295 529.19 443.188 529.105 441.861 529.105 L 437.546 529.105 L 433.287 529.105 C 432.014 529.105 430.852 529.148 429.912 529.275 C 430.244 526.672 430.465 523.94 430.576 521.124 C 430.686 518.307 430.742 515.277 430.742 512.119 L 430.742 508.961 C 430.742 505.759 430.686 502.772 430.576 499.997 C 430.465 497.181 430.244 494.406 429.912 491.547 C 431.074 491.675 432.235 491.76 433.397 491.803 C 434.558 491.889 435.776 491.932 436.882 491.932 C 437.988 491.932 439.206 491.889 440.368 491.803 C 441.529 491.718 442.746 491.632 443.852 491.547 L 443.52 501.107 L 443.742 501.278 C 445.512 497.651 447.614 495.004 450.159 493.297 C 452.649 491.59 455.636 490.737 459.121 490.737 C 459.453 490.737 459.73 490.737 460.006 490.779 C 460.227 490.822 460.504 490.822 460.781 490.822 C 460.559 491.59 460.449 492.444 460.338 493.34 C 460.227 494.236 460.172 495.26 460.172 496.498 L 460.172 499.016 L 460.172 500.34 C 460.172 500.809 460.227 501.235 460.282 501.663 C 460.504 502.686 459.398 502.26 459.398 502.26" style=""/>
      <path class="st0" d="M 494.194 494.023 C 494.194 494.706 494.304 495.346 494.526 495.985 L 485.564 495.815 C 485.398 497.01 485.287 498.418 485.232 499.955 C 485.122 501.534 485.066 503.114 485.011 504.735 C 484.955 506.357 484.955 507.936 484.9 509.43 C 484.845 510.966 484.845 512.247 484.845 513.271 C 484.845 516.003 484.9 518.179 485.122 519.844 C 485.287 521.508 485.564 522.789 486.006 523.684 C 486.394 524.581 487.003 525.178 487.722 525.478 C 488.441 525.776 489.436 525.947 490.543 525.947 C 491.816 525.947 492.755 525.862 493.364 525.734 C 493.973 525.606 494.581 525.391 495.19 525.136 L 495.19 528.337 C 493.807 528.806 492.147 529.233 490.1 529.574 C 488.054 529.959 486.062 530.129 484.126 530.129 C 475.496 530.129 471.236 526.16 471.236 518.221 C 471.236 516.685 471.292 514.978 471.347 513.101 C 471.402 511.222 471.512 509.217 471.623 507.21 C 471.734 505.205 471.789 503.199 471.9 501.235 C 472.011 499.272 472.011 497.437 472.011 495.772 L 464.874 495.858 C 465.095 495.218 465.206 494.577 465.206 493.895 C 465.206 493.254 465.095 492.572 464.874 491.76 L 472.011 492.017 C 472.011 490.394 471.955 488.858 471.9 487.45 C 471.844 486.041 471.734 484.334 471.568 482.371 C 473.947 481.645 476.27 480.878 478.593 480.066 C 480.917 479.255 483.185 478.402 485.509 477.506 L 486.504 478.061 C 486.338 478.914 486.228 479.896 486.173 481.006 C 486.062 482.116 485.951 483.31 485.896 484.548 C 485.785 485.785 485.73 487.023 485.674 488.304 C 485.619 489.584 485.619 490.822 485.619 491.932 L 494.581 491.76 C 494.304 492.657 494.194 493.383 494.194 494.023" style=""/>
      <path class="st0" d="M 261.572 476.396 C 261.572 477.25 260.687 477.933 259.58 477.933 C 258.474 477.933 257.589 477.25 257.589 476.396 C 257.589 475.543 258.474 474.859 259.58 474.859 C 260.687 474.859 261.572 475.543 261.572 476.396" style=""/>
      <polygon class="st0" points="224.674 529.361 284.752 529.361 282.981 526.117 226.443 526.117" style=""/>
      <polygon class="st0" points="227.661 523.94 281.764 523.94 279.994 520.74 229.431 520.74" style=""/>
      <polygon class="st0" points="230.704 518.478 278.721 518.478 277.283 515.832 232.197 515.832" style=""/>
      <polygon class="st0" points="233.524 513.484 275.955 513.484 274.628 511.051 234.852 511.051" style=""/>
      <polygon class="st0" points="236.456 508.149 273.023 508.149 272.138 506.528 237.342 506.528" style=""/>
      <polygon class="st0" points="239.167 503.242 270.313 503.242 269.428 501.619 240.053 501.619" style=""/>
      <polygon class="st0" points="241.436 499.102 268.045 499.102 267.104 497.437 242.376 497.437" style=""/>
      <polygon class="st0" points="244.201 494.193 265.334 494.193 264.56 492.87 244.921 492.87" style=""/>
      <path class="st0" d="M 251.117 476.396 C 251.117 477.25 250.231 477.933 249.125 477.933 C 248.018 477.933 247.134 477.25 247.134 476.396 C 247.134 475.543 248.018 474.859 249.125 474.859 C 250.231 474.859 251.117 475.543 251.117 476.396" style=""/>
      <path class="st0" d="M 254.491 471.488 L 252.554 478.061 C 252.389 478.701 251.615 479.127 250.785 479.085 L 241.767 478.743 L 249.125 481.645 C 249.899 481.944 250.231 482.627 249.955 483.267 L 246.802 490.224 C 246.802 490.224 253.44 487.92 254.38 482.499 C 254.38 482.499 255.155 487.663 261.683 490.224 L 258.861 483.267 C 258.585 482.627 258.972 481.987 259.691 481.688 L 267.104 478.743 L 258.253 479.085 C 257.423 479.127 256.648 478.701 256.483 478.061 L 254.491 471.488 Z" style=""/>
    </g>
  </g>
</svg>